<mxfile host="Electron" modified="2023-12-26T08:59:40.857Z" agent="Mozilla/5.0 (Macintosh; Intel Mac OS X 10_15_7) AppleWebKit/537.36 (KHTML, like Gecko) draw.io/22.1.2 Chrome/114.0.5735.289 Electron/25.9.4 Safari/537.36" etag="4HKqTyafVNXXVpT5UgDR" version="22.1.2" type="device">
  <diagram name="Page-1" id="ITtX9Lq0n4qZrEiSBLN5">
    <mxGraphModel dx="2074" dy="1214" grid="1" gridSize="10" guides="1" tooltips="1" connect="1" arrows="1" fold="1" page="1" pageScale="1" pageWidth="850" pageHeight="1100" math="0" shadow="0">
      <root>
        <mxCell id="0" />
        <mxCell id="1" parent="0" />
        <mxCell id="Frl6VIrPkojD6sAPo8_c-2" value="" style="shape=umlActor;verticalLabelPosition=bottom;verticalAlign=top;html=1;outlineConnect=0;" parent="1" vertex="1">
          <mxGeometry x="20" y="310" width="30" height="60" as="geometry" />
        </mxCell>
        <mxCell id="Frl6VIrPkojD6sAPo8_c-8" style="edgeStyle=orthogonalEdgeStyle;rounded=0;orthogonalLoop=1;jettySize=auto;html=1;" parent="1" target="Frl6VIrPkojD6sAPo8_c-2" edge="1">
          <mxGeometry relative="1" as="geometry">
            <mxPoint x="260" y="370" as="sourcePoint" />
            <Array as="points">
              <mxPoint x="110" y="370" />
              <mxPoint x="110" y="370" />
            </Array>
          </mxGeometry>
        </mxCell>
        <mxCell id="Frl6VIrPkojD6sAPo8_c-9" value="[product2, product3]" style="edgeLabel;html=1;align=center;verticalAlign=middle;resizable=0;points=[];" parent="Frl6VIrPkojD6sAPo8_c-8" vertex="1" connectable="0">
          <mxGeometry x="0.2869" y="-2" relative="1" as="geometry">
            <mxPoint x="24" y="2" as="offset" />
          </mxGeometry>
        </mxCell>
        <mxCell id="Frl6VIrPkojD6sAPo8_c-5" value="" style="rounded=0;whiteSpace=wrap;html=1;" parent="1" vertex="1">
          <mxGeometry x="280" y="200" width="530" height="540" as="geometry" />
        </mxCell>
        <mxCell id="Frl6VIrPkojD6sAPo8_c-6" style="edgeStyle=orthogonalEdgeStyle;rounded=0;orthogonalLoop=1;jettySize=auto;html=1;" parent="1" source="Frl6VIrPkojD6sAPo8_c-2" edge="1">
          <mxGeometry relative="1" as="geometry">
            <mxPoint x="250" y="340" as="targetPoint" />
          </mxGeometry>
        </mxCell>
        <mxCell id="Frl6VIrPkojD6sAPo8_c-7" value="DELETE /products/product1" style="edgeLabel;html=1;align=center;verticalAlign=middle;resizable=0;points=[];" parent="Frl6VIrPkojD6sAPo8_c-6" vertex="1" connectable="0">
          <mxGeometry x="-0.3299" relative="1" as="geometry">
            <mxPoint x="38" as="offset" />
          </mxGeometry>
        </mxCell>
        <mxCell id="Frl6VIrPkojD6sAPo8_c-10" value="Command Line App" style="text;html=1;strokeColor=none;fillColor=none;align=center;verticalAlign=middle;whiteSpace=wrap;rounded=0;" parent="1" vertex="1">
          <mxGeometry x="290" y="200" width="60" height="30" as="geometry" />
        </mxCell>
        <mxCell id="Frl6VIrPkojD6sAPo8_c-14" style="edgeStyle=orthogonalEdgeStyle;rounded=0;orthogonalLoop=1;jettySize=auto;html=1;" parent="1" source="Frl6VIrPkojD6sAPo8_c-11" target="Frl6VIrPkojD6sAPo8_c-13" edge="1">
          <mxGeometry relative="1" as="geometry" />
        </mxCell>
        <mxCell id="Frl6VIrPkojD6sAPo8_c-11" value="Accept and Parse&lt;br&gt;Request&amp;nbsp;" style="rounded=0;whiteSpace=wrap;html=1;" parent="1" vertex="1">
          <mxGeometry x="490" y="210" width="120" height="60" as="geometry" />
        </mxCell>
        <mxCell id="Frl6VIrPkojD6sAPo8_c-22" style="edgeStyle=orthogonalEdgeStyle;rounded=0;orthogonalLoop=1;jettySize=auto;html=1;" parent="1" source="Frl6VIrPkojD6sAPo8_c-13" target="Frl6VIrPkojD6sAPo8_c-21" edge="1">
          <mxGeometry relative="1" as="geometry" />
        </mxCell>
        <mxCell id="Frl6VIrPkojD6sAPo8_c-13" value="Find Controller and Method" style="rounded=0;whiteSpace=wrap;html=1;" parent="1" vertex="1">
          <mxGeometry x="490" y="300" width="120" height="60" as="geometry" />
        </mxCell>
        <mxCell id="Frl6VIrPkojD6sAPo8_c-18" style="edgeStyle=orthogonalEdgeStyle;rounded=0;orthogonalLoop=1;jettySize=auto;html=1;" parent="1" source="Frl6VIrPkojD6sAPo8_c-15" target="Frl6VIrPkojD6sAPo8_c-17" edge="1">
          <mxGeometry relative="1" as="geometry" />
        </mxCell>
        <mxCell id="Frl6VIrPkojD6sAPo8_c-15" value="Execute ProductController delete" style="rounded=0;whiteSpace=wrap;html=1;" parent="1" vertex="1">
          <mxGeometry x="485" y="580" width="120" height="60" as="geometry" />
        </mxCell>
        <mxCell id="Frl6VIrPkojD6sAPo8_c-17" value="Return Response" style="rounded=0;whiteSpace=wrap;html=1;" parent="1" vertex="1">
          <mxGeometry x="485" y="670" width="120" height="60" as="geometry" />
        </mxCell>
        <mxCell id="Frl6VIrPkojD6sAPo8_c-24" style="edgeStyle=orthogonalEdgeStyle;rounded=0;orthogonalLoop=1;jettySize=auto;html=1;entryX=0.5;entryY=0;entryDx=0;entryDy=0;" parent="1" source="Frl6VIrPkojD6sAPo8_c-21" target="Frl6VIrPkojD6sAPo8_c-23" edge="1">
          <mxGeometry relative="1" as="geometry" />
        </mxCell>
        <mxCell id="Frl6VIrPkojD6sAPo8_c-21" value="AuthenticationFilter&lt;br&gt;(ProductController)" style="rounded=0;whiteSpace=wrap;html=1;" parent="1" vertex="1">
          <mxGeometry x="490" y="400" width="120" height="60" as="geometry" />
        </mxCell>
        <mxCell id="Frl6VIrPkojD6sAPo8_c-23" value="AuthorizationFilter&lt;br&gt;(ProductController Delete Method)" style="rounded=0;whiteSpace=wrap;html=1;" parent="1" vertex="1">
          <mxGeometry x="490" y="490" width="120" height="60" as="geometry" />
        </mxCell>
        <mxCell id="Frl6VIrPkojD6sAPo8_c-25" style="edgeStyle=orthogonalEdgeStyle;rounded=0;orthogonalLoop=1;jettySize=auto;html=1;entryX=0.54;entryY=-0.006;entryDx=0;entryDy=0;entryPerimeter=0;" parent="1" source="Frl6VIrPkojD6sAPo8_c-23" target="Frl6VIrPkojD6sAPo8_c-15" edge="1">
          <mxGeometry relative="1" as="geometry" />
        </mxCell>
        <mxCell id="Frl6VIrPkojD6sAPo8_c-26" value="Tomcat" style="text;html=1;strokeColor=none;fillColor=none;align=center;verticalAlign=middle;whiteSpace=wrap;rounded=0;" parent="1" vertex="1">
          <mxGeometry x="610" y="210" width="60" height="30" as="geometry" />
        </mxCell>
        <mxCell id="Frl6VIrPkojD6sAPo8_c-27" value="Spring" style="text;html=1;strokeColor=none;fillColor=none;align=center;verticalAlign=middle;whiteSpace=wrap;rounded=0;" parent="1" vertex="1">
          <mxGeometry x="610" y="300" width="60" height="30" as="geometry" />
        </mxCell>
        <mxCell id="Frl6VIrPkojD6sAPo8_c-28" value="Spring (Security)" style="text;html=1;strokeColor=none;fillColor=none;align=center;verticalAlign=middle;whiteSpace=wrap;rounded=0;" parent="1" vertex="1">
          <mxGeometry x="610" y="400" width="60" height="30" as="geometry" />
        </mxCell>
        <mxCell id="Frl6VIrPkojD6sAPo8_c-29" value="Spring (Security)" style="text;html=1;strokeColor=none;fillColor=none;align=center;verticalAlign=middle;whiteSpace=wrap;rounded=0;" parent="1" vertex="1">
          <mxGeometry x="610" y="490" width="60" height="30" as="geometry" />
        </mxCell>
        <mxCell id="Frl6VIrPkojD6sAPo8_c-30" value="Spring" style="text;html=1;strokeColor=none;fillColor=none;align=center;verticalAlign=middle;whiteSpace=wrap;rounded=0;" parent="1" vertex="1">
          <mxGeometry x="605" y="580" width="60" height="30" as="geometry" />
        </mxCell>
        <mxCell id="Frl6VIrPkojD6sAPo8_c-31" value="Spring" style="text;html=1;strokeColor=none;fillColor=none;align=center;verticalAlign=middle;whiteSpace=wrap;rounded=0;" parent="1" vertex="1">
          <mxGeometry x="605" y="670" width="60" height="30" as="geometry" />
        </mxCell>
        <mxCell id="Frl6VIrPkojD6sAPo8_c-32" value="Tomcat" style="text;html=1;strokeColor=none;fillColor=none;align=center;verticalAlign=middle;whiteSpace=wrap;rounded=0;" parent="1" vertex="1">
          <mxGeometry x="610" y="700" width="60" height="30" as="geometry" />
        </mxCell>
      </root>
    </mxGraphModel>
  </diagram>
</mxfile>
